<?xml version="1.0" encoding="UTF-8"?>
<svg id="Layer_1" data-name="Layer 1" xmlns="http://www.w3.org/2000/svg" viewBox="0 0 739.63 371" width="80px" height="auto">
  <defs>
    <style>
      .cls-1 {
        fill: #231f20;
      }
    </style>
  </defs>
  <path class="cls-1" d="m523.13,141.7c-16.69,0-31.65,12.88-37.88,33.29h-1.13l-.84-29.84h-55.96v-43.65l-24.3,7.23v36.43h-27.39v-43.65l-24.3,7.23v36.43h-98.07v-7.53c0-24.18,7.62-44.61,33.92-44.61,12.16,0,22.9,4.08,28.83,8.79l7.07-21.04c-7.07-5.64-22.04-10.05-34.76-10.05-38.45,0-59.65,26.08-59.65,66.29v8.16h-19.21v21.04h19.21v134.1h24.6v-134.1h54.83v134.1h24.61v-134.1h18.64v134.1h24.3v-134.1h27.39v82.91c0,1.88.03,3.69.09,5.47v45.73h24.21v-134.1h35.05c.2,8.22.27,16.95.27,26.38v107.73h24.6v-84.18c0-4.71.57-9.1,1.13-12.88,3.38-20.73,15.83-35.49,33.35-35.49,3.38,0,5.92.32,8.46.95v-26.08c-2.25-.62-4.22-.93-7.06-.93Z"/>
  <path class="cls-1" d="m305.53,125.57c0,7.03,5.13,12.73,11.46,12.73s11.45-5.7,11.45-12.73-5.13-12.73-11.45-12.73-11.46,5.69-11.46,12.73Z"/>
  <path class="cls-1" d="m738.38,120.79c-8.1-46.16-54.46-82.47-130.53-102.21C541.23,1.29,458.58-1.56,372.25,10.1c-85.98-14.05-168.68-13.49-235.74,1.95C59.92,29.69,12.57,64.69,3.19,110.61c-4.6,22.53.26,46.23,13.89,70C2.8,203.98-2.72,227.54,1.26,250.19c8.1,46.17,54.46,82.46,130.54,102.21,39.86,10.35,85.47,15.54,134.18,15.54,32.71,0,66.82-2.36,101.53-7.05,41.05,6.7,81.37,10.11,119.57,10.11,41.77,0,81.04-4.01,116.05-12.07,76.6-17.63,123.94-52.63,133.32-98.55,4.6-22.54-.26-46.24-13.89-70.01,14.28-23.37,19.8-46.93,15.82-69.58ZM473.69,11.93c47.92,0,92.77,5.1,131.92,15.26,72.51,18.82,116.55,52.6,124.01,95.13,3.38,19.25-.91,39.36-12.32,59.54-14.44-21.82-36.21-43.58-64.84-64.42-62.56-45.54-150.64-81.57-248.02-101.46-.74-.15-1.47-.28-2.21-.43,24.34-2.39,48.27-3.62,71.46-3.62ZM11.9,112.39c8.64-42.31,53.6-74.87,126.6-91.67,34.38-7.91,72.96-11.86,114.05-11.86,28.84,0,58.92,1.98,89.62,5.85-.76.13-1.51.24-2.26.38-97.9,17.18-186.94,50.76-250.73,94.55-29.2,20.04-51.56,41.19-66.6,62.6-10.85-20.49-14.59-40.71-10.68-59.85Zm-1.88,136.27c-3.44-19.59,1.06-39.73,12.27-59.63,14.44,21.85,36.22,43.64,64.89,64.52,62.56,45.53,150.64,81.56,248.02,101.45.76.16,1.53.29,2.29.44-172.06,16.88-313.45-26.88-327.47-106.78Zm326.96,97.63c-96.16-19.64-183.01-55.13-244.56-99.93-29.42-21.42-51.27-43.65-65-65.71C72.03,113.12,192.78,49.94,341.44,23.84c10.24-1.79,20.44-3.36,30.59-4.75,10.17,1.68,20.38,3.51,30.63,5.6,96.16,19.64,183.01,55.13,244.56,99.94,29.38,21.38,51.2,43.58,64.94,65.6-14.34,21.64-36.77,43.23-66.73,63.78-62.76,43.09-150.57,76.16-247.23,93.13-10.27,1.8-20.47,3.38-30.59,4.76-10.17-1.68-20.38-3.52-30.63-5.61Zm390.76-87.69c-8.64,42.3-53.6,74.86-126.6,91.66-58.49,13.47-129.19,15.39-203.6,6,.74-.13,1.46-.24,2.2-.36,97.89-17.19,186.93-50.77,250.72-94.56,29.21-20.04,51.56-41.19,66.6-62.6,10.85,20.49,14.59,40.71,10.68,59.86Z"/>
</svg>